<svg width="60" height="60" viewBox="0 0 60 60" fill="none" xmlns="http://www.w3.org/2000/svg">
<circle cx="30" cy="30" r="26" fill="#F2F0F2" stroke="#49735A" stroke-width="8"/>
<path d="M40.1838 29.8358L30.5299 20.1889C30.4604 20.1193 30.3778 20.064 30.2869 20.0263C30.196 19.9886 30.0986 19.9692 30.0002 19.9692C29.9018 19.9692 29.8044 19.9886 29.7135 20.0263C29.6226 20.064 29.54 20.1193 29.4705 20.1889L19.8166 29.8358C19.5354 30.1171 19.376 30.4991 19.376 30.8975C19.376 31.7249 20.0486 32.3975 20.876 32.3975H21.8932V39.2811C21.8932 39.696 22.2283 40.0311 22.6432 40.0311H28.5002V34.7811H31.1252V40.0311H37.3572C37.7721 40.0311 38.1072 39.696 38.1072 39.2811V32.3975H39.1244C39.5228 32.3975 39.9049 32.2405 40.1861 31.9569C40.7697 31.371 40.7697 30.4218 40.1838 29.8358Z" fill="black"/>
</svg>
