<svg width="36" height="36" viewBox="0 0 36 36" fill="none" xmlns="http://www.w3.org/2000/svg">
<circle cx="18" cy="18" r="18" fill="#064749"/>
<path d="M23.8333 17.1666H18.8333V12.1666C18.8333 11.9456 18.7455 11.7337 18.5892 11.5774C18.4329 11.4211 18.2209 11.3333 17.9999 11.3333C17.7789 11.3333 17.5669 11.4211 17.4107 11.5774C17.2544 11.7337 17.1666 11.9456 17.1666 12.1666V17.1666H12.1666C11.9456 17.1666 11.7336 17.2544 11.5773 17.4107C11.421 17.567 11.3333 17.779 11.3333 18C11.3333 18.221 11.421 18.433 11.5773 18.5892C11.7336 18.7455 11.9456 18.8333 12.1666 18.8333H17.1666V23.8333C17.1666 24.0543 17.2544 24.2663 17.4107 24.4226C17.5669 24.5788 17.7789 24.6666 17.9999 24.6666C18.2209 24.6666 18.4329 24.5788 18.5892 24.4226C18.7455 24.2663 18.8333 24.0543 18.8333 23.8333V18.8333H23.8333C24.0543 18.8333 24.2662 18.7455 24.4225 18.5892C24.5788 18.433 24.6666 18.221 24.6666 18C24.6666 17.779 24.5788 17.567 24.4225 17.4107C24.2662 17.2544 24.0543 17.1666 23.8333 17.1666Z" fill="white"/>
</svg>
