<svg width="20" height="20" viewBox="0 0 20 20" fill="none" xmlns="http://www.w3.org/2000/svg">
<path d="M19.1667 5.83332C17.6978 5.7525 16.2405 6.1343 15 6.92498C14.7 6.58332 14.3917 6.24165 14.0667 5.91665L13.825 5.69165L13.9417 5.59165C14.3492 5.24182 14.6396 4.77541 14.7737 4.25535C14.9078 3.73528 14.8792 3.18659 14.6917 2.68332C14.4208 2.11513 13.9907 1.63784 13.4537 1.30943C12.9167 0.98102 12.2959 0.815617 11.6667 0.833317V2.49998C11.9632 2.49586 12.2554 2.57091 12.5132 2.71739C12.771 2.86388 12.9851 3.0765 13.1333 3.33332C13.275 3.66665 13.1333 4.03332 12.7417 4.42498L12.55 4.59998C11.6808 3.8757 10.7265 3.26005 9.70833 2.76665C7.6 1.81665 6.51667 2.25832 5.98333 2.76665C5.82082 2.92956 5.69074 3.12186 5.6 3.33332L5.45 3.77498L4.25 7.39165C5.2 9.75832 7.5 13.9667 12.5 15.7833L16.6667 14.4C16.8072 14.3477 16.931 14.2584 17.025 14.1416L17.2 13.9917C18.3917 12.7917 17.625 10.4833 16.025 8.24165C16.975 7.6872 18.069 7.42895 19.1667 7.49998V5.83332ZM16.0083 12.8083H15.9583C15.3833 13.1167 13 12.3333 10.3 9.63332C10.0167 9.34998 9.75 9.07498 9.50833 8.79998C9.425 8.70832 9.35 8.60832 9.26667 8.50832L8.825 7.97498L8.59167 7.64998C8.475 7.49165 8.35833 7.33332 8.25833 7.18332C8.15833 7.03332 8.125 6.96665 8.05833 6.85832C7.99167 6.74998 7.875 6.57498 7.8 6.43332C7.725 6.29165 7.69167 6.23332 7.64167 6.12498C7.59167 6.01665 7.5 5.89165 7.45 5.77498C7.4 5.65832 7.375 5.58332 7.33333 5.49165C7.29167 5.39998 7.24167 5.26665 7.20833 5.15832C7.175 5.04998 7.16667 4.99998 7.15 4.91665C7.13333 4.83332 7.1 4.71665 7.08333 4.63332C7.07933 4.56671 7.07933 4.49992 7.08333 4.43332C7.07514 4.36133 7.07514 4.28864 7.08333 4.21665L7.175 3.95832C7.31667 3.80832 7.93333 3.76665 9.03333 4.26665C9.76846 4.61981 10.464 5.04999 11.1083 5.54998C10.7571 5.70501 10.3826 5.80075 10 5.83332V7.49998C10.8853 7.44975 11.7443 7.1806 12.5 6.71665L12.9083 7.09998C13.275 7.45832 13.6 7.81665 13.9 8.15832C13.3975 9.0151 13.1979 10.016 13.3333 11L15 10.675C14.9437 10.3608 14.9437 10.0391 15 9.72498C16.075 11.3667 16.275 12.55 16.0083 12.8083Z" fill="black"/>
<path d="M3.66668 9.1665L1.80835 14.7498C1.67422 15.1598 1.639 15.5956 1.70558 16.0217C1.77215 16.4479 1.93862 16.8522 2.19139 17.2017C2.44415 17.5512 2.77603 17.8359 3.15989 18.0325C3.54376 18.2292 3.96871 18.3322 4.40001 18.3332C4.68355 18.3304 4.96483 18.2826 5.23335 18.1915L10.6667 16.3832C7.60012 14.817 5.13863 12.2794 3.66668 9.1665Z" fill="black"/>
</svg>
