<svg width="20" height="20" viewBox="0 0 20 20" fill="none" xmlns="http://www.w3.org/2000/svg">
<g clip-path="url(#clip0_0_3058)">
<path d="M7.94528 0C6.85191 0.00785 5.98566 0.847583 5.93903 1.9849C5.94698 3.0916 6.79561 3.94937 7.94528 3.99167C8.96905 3.9778 9.87843 3.13375 9.93018 1.9849C9.92242 0.8827 9.07877 0.05025 7.94528 0ZM8.49997 4.43958C8.04463 4.43958 7.66043 4.5925 7.34736 4.89843C7.09301 5.15372 6.80825 5.71678 6.89945 6.16875H6.8781L8.05205 11.825C8.17313 12.4729 8.70635 12.8906 9.4182 12.9349C11.0535 12.9304 12.8267 12.8933 14.4979 12.9136L17.3156 17.8229C17.6326 18.4921 18.4445 18.633 19.0338 18.1432C19.3166 17.8627 19.4309 17.3853 19.2364 16.9693L15.9708 11.2912C15.7355 10.8044 15.2713 10.5301 14.6901 10.5016H11.0614L10.6349 8.4099H13.4734C14.087 8.4553 14.5291 7.98698 14.4021 7.34272C14.3087 7.02792 13.9825 6.73808 13.6015 6.72347H10.2718C10.104 5.86575 10.1307 5.34725 9.47133 4.75992C9.19385 4.54645 8.86993 4.43958 8.49997 4.43958ZM5.43798 6.86042C5.34776 6.86172 5.25797 6.87307 5.17026 6.89427C3.91286 7.38352 2.78164 8.22428 1.90463 9.39167C1.13181 10.4815 0.699743 11.7933 0.666626 13.2339C0.679493 14.9412 1.41264 16.6933 2.72653 18.0151C4 19.228 5.76761 19.9601 7.66768 20C9.05355 19.9924 10.4389 19.5831 11.7021 18.7729C12.8366 18.0023 13.7256 16.8965 14.263 15.5177C14.3626 15.2758 14.4481 15.0051 14.5193 14.7063C14.6234 14.2365 14.3598 13.8549 13.8578 13.7031C13.4012 13.602 12.9929 13.8539 12.8333 14.3438C12.7909 14.5561 12.7265 14.7635 12.6411 14.9625C12.2786 15.921 11.6039 16.7506 10.7094 17.3958C9.8396 17.9873 8.79795 18.3094 7.66768 18.3349C6.32353 18.3254 5.02881 17.813 3.9432 16.8412C3.01038 15.9368 2.42683 14.6426 2.39579 13.2339C2.40176 12.2296 2.72516 11.2386 3.33486 10.3417C3.93278 9.51155 4.7698 8.87047 5.78955 8.4526C6.21926 8.31167 6.45076 7.86677 6.30153 7.38542C6.15738 7.0394 5.8178 6.85528 5.43798 6.86042Z" fill="black"/>
</g>
<defs>
<clipPath id="clip0_0_3058">
<rect width="20" height="20" fill="white"/>
</clipPath>
</defs>
</svg>
