<svg width="21" height="20" viewBox="0 0 21 20" fill="none" xmlns="http://www.w3.org/2000/svg">
<path d="M4.36635 10.8337H14.2497L11.2247 14.467C11.1546 14.5513 11.1019 14.6485 11.0694 14.7531C11.037 14.8578 11.0254 14.9678 11.0355 15.0769C11.0558 15.2973 11.1628 15.5005 11.333 15.642C11.5032 15.7834 11.7226 15.8515 11.943 15.8312C12.1633 15.8109 12.3666 15.7038 12.508 15.5337L16.6747 10.5337C16.7027 10.4939 16.7278 10.4521 16.7497 10.4087C16.7497 10.367 16.7914 10.342 16.808 10.3003C16.8458 10.2048 16.8656 10.1031 16.8664 10.0003C16.8656 9.89759 16.8458 9.79588 16.808 9.70033C16.808 9.65866 16.7664 9.63366 16.7497 9.59199C16.7278 9.54854 16.7027 9.50676 16.6747 9.46699L12.508 4.46699C12.4297 4.37292 12.3316 4.29727 12.2206 4.24542C12.1097 4.19357 11.9888 4.16679 11.8664 4.16699C11.6716 4.16661 11.4829 4.23443 11.333 4.35866C11.2486 4.42862 11.1789 4.51454 11.1278 4.61149C11.0766 4.70845 11.0451 4.81454 11.0351 4.92368C11.025 5.03283 11.0366 5.14289 11.0691 5.24756C11.1017 5.35223 11.1545 5.44945 11.2247 5.53366L14.2497 9.16699H4.36635C4.14534 9.16699 3.93338 9.25479 3.7771 9.41107C3.62082 9.56735 3.53302 9.77931 3.53302 10.0003C3.53302 10.2213 3.62082 10.4333 3.7771 10.5896C3.93338 10.7459 4.14534 10.8337 4.36635 10.8337Z" fill="#181A18"/>
</svg>
