<svg width="21" height="20" viewBox="0 0 21 20" fill="none" xmlns="http://www.w3.org/2000/svg">
<path d="M4.36702 10.8332H14.2504L11.2254 14.4665C11.1553 14.5508 11.1026 14.648 11.0701 14.7527C11.0376 14.8573 11.0261 14.9673 11.0362 15.0764C11.0565 15.2968 11.1635 15.5001 11.3337 15.6415C11.5039 15.783 11.7233 15.851 11.9436 15.8307C12.164 15.8104 12.3672 15.7034 12.5087 15.5332L16.6754 10.5332C16.7034 10.4934 16.7285 10.4516 16.7504 10.4082C16.7504 10.3665 16.792 10.3415 16.8087 10.2998C16.8465 10.2043 16.8662 10.1026 16.867 9.99984C16.8662 9.8971 16.8465 9.79539 16.8087 9.69984C16.8087 9.65817 16.767 9.63317 16.7504 9.59151C16.7285 9.54806 16.7034 9.50628 16.6754 9.46651L12.5087 4.46651C12.4303 4.37244 12.3322 4.29679 12.2213 4.24494C12.1104 4.19308 11.9894 4.16631 11.867 4.16651C11.6723 4.16613 11.4836 4.23394 11.3337 4.35817C11.2493 4.42813 11.1796 4.51405 11.1284 4.611C11.0773 4.70796 11.0458 4.81405 11.0357 4.9232C11.0257 5.03234 11.0372 5.1424 11.0698 5.24707C11.1023 5.35174 11.1552 5.44897 11.2254 5.53317L14.2504 9.16651H4.36702C4.14601 9.16651 3.93405 9.2543 3.77777 9.41058C3.62149 9.56686 3.53369 9.77883 3.53369 9.99984C3.53369 10.2209 3.62149 10.4328 3.77777 10.5891C3.93405 10.7454 4.14601 10.8332 4.36702 10.8332Z" fill="#181A18"/>
</svg>
