<svg width="20" height="20" viewBox="0 0 20 20" fill="none" xmlns="http://www.w3.org/2000/svg">
<path d="M9.99997 14.167C9.78722 14.1659 9.57739 14.1175 9.38568 14.0253C9.19398 13.933 9.02521 13.7992 8.89163 13.6337L5.3833 9.38366C5.17829 9.1278 5.04929 8.8195 5.01098 8.49388C4.97267 8.16827 5.02661 7.83844 5.16663 7.54199C5.2802 7.28435 5.46553 7.06484 5.70048 6.90968C5.93544 6.75452 6.21009 6.67027 6.49163 6.66699H13.5083C13.7898 6.67027 14.0645 6.75452 14.2995 6.90968C14.5344 7.06484 14.7197 7.28435 14.8333 7.54199C14.9733 7.83844 15.0273 8.16827 14.989 8.49388C14.9506 8.8195 14.8216 9.1278 14.6166 9.38366L11.1083 13.6337C10.9747 13.7992 10.806 13.933 10.6142 14.0253C10.4225 14.1175 10.2127 14.1659 9.99997 14.167Z" fill="#49735A"/>
</svg>
