<svg width="20" height="20" viewBox="0 0 20 20" fill="none" xmlns="http://www.w3.org/2000/svg">
<path d="M9.99999 1.6665C8.35182 1.6665 6.74065 2.15525 5.37024 3.07092C3.99983 3.9866 2.93173 5.28809 2.301 6.81081C1.67027 8.33353 1.50524 10.0091 1.82678 11.6256C2.14833 13.2421 2.942 14.727 4.10744 15.8924C5.27287 17.0578 6.75773 17.8515 8.37424 18.173C9.99075 18.4946 11.6663 18.3296 13.189 17.6988C14.7117 17.0681 16.0132 16 16.9289 14.6296C17.8446 13.2592 18.3333 11.648 18.3333 9.99984C18.3333 8.90549 18.1178 7.82186 17.699 6.81081C17.2802 5.79976 16.6664 4.8811 15.8925 4.10728C15.1187 3.33346 14.2001 2.71963 13.189 2.30084C12.178 1.88205 11.0943 1.6665 9.99999 1.6665ZM13.3333 10.8332H9.99999C9.77898 10.8332 9.56702 10.7454 9.41074 10.5891C9.25446 10.4328 9.16666 10.2209 9.16666 9.99984V6.6665C9.16666 6.44549 9.25446 6.23353 9.41074 6.07725C9.56702 5.92097 9.77898 5.83317 9.99999 5.83317C10.221 5.83317 10.433 5.92097 10.5892 6.07725C10.7455 6.23353 10.8333 6.44549 10.8333 6.6665V9.1665H13.3333C13.5543 9.1665 13.7663 9.2543 13.9226 9.41058C14.0789 9.56686 14.1667 9.77882 14.1667 9.99984C14.1667 10.2209 14.0789 10.4328 13.9226 10.5891C13.7663 10.7454 13.5543 10.8332 13.3333 10.8332Z" fill="black"/>
</svg>
