<svg width="20" height="20" viewBox="0 0 20 20" fill="none" xmlns="http://www.w3.org/2000/svg">
<path d="M10 1.6665C8.35185 1.6665 6.74068 2.15525 5.37027 3.07092C3.99986 3.9866 2.93176 5.28809 2.30103 6.81081C1.6703 8.33353 1.50527 10.0091 1.82681 11.6256C2.14836 13.2421 2.94203 14.727 4.10747 15.8924C5.27291 17.0578 6.75776 17.8515 8.37427 18.173C9.99078 18.4946 11.6663 18.3296 13.1891 17.6988C14.7118 17.0681 16.0133 16 16.9289 14.6296C17.8446 13.2592 18.3334 11.648 18.3334 9.99984C18.3334 8.90549 18.1178 7.82186 17.699 6.81081C17.2802 5.79976 16.6664 4.8811 15.8926 4.10728C15.1188 3.33346 14.2001 2.71963 13.1891 2.30084C12.178 1.88205 11.0944 1.6665 10 1.6665ZM12.2584 11.0748C12.3365 11.1523 12.3985 11.2445 12.4408 11.346C12.4831 11.4476 12.5049 11.5565 12.5049 11.6665C12.5049 11.7765 12.4831 11.8854 12.4408 11.987C12.3985 12.0885 12.3365 12.1807 12.2584 12.2582C12.1809 12.3363 12.0887 12.3983 11.9872 12.4406C11.8856 12.4829 11.7767 12.5047 11.6667 12.5047C11.5567 12.5047 11.4478 12.4829 11.3462 12.4406C11.2447 12.3983 11.1525 12.3363 11.075 12.2582L10 11.1748L8.92502 12.2582C8.84756 12.3363 8.75539 12.3983 8.65384 12.4406C8.55229 12.4829 8.44337 12.5047 8.33336 12.5047C8.22335 12.5047 8.11443 12.4829 8.01288 12.4406C7.91133 12.3983 7.81916 12.3363 7.74169 12.2582C7.66358 12.1807 7.60159 12.0885 7.55928 11.987C7.51697 11.8854 7.49519 11.7765 7.49519 11.6665C7.49519 11.5565 7.51697 11.4476 7.55928 11.346C7.60159 11.2445 7.66358 11.1523 7.74169 11.0748L8.82502 9.99984L7.74169 8.92484C7.58477 8.76792 7.49661 8.55509 7.49661 8.33317C7.49661 8.11125 7.58477 7.89842 7.74169 7.7415C7.89861 7.58458 8.11144 7.49643 8.33336 7.49643C8.55528 7.49643 8.7681 7.58458 8.92502 7.7415L10 8.82484L11.075 7.7415C11.2319 7.58458 11.4448 7.49643 11.6667 7.49643C11.8886 7.49643 12.1014 7.58458 12.2584 7.7415C12.4153 7.89842 12.5034 8.11125 12.5034 8.33317C12.5034 8.55509 12.4153 8.76792 12.2584 8.92484L11.175 9.99984L12.2584 11.0748Z" fill="black"/>
</svg>
