<svg width="20" height="20" viewBox="0 0 20 20" fill="none" xmlns="http://www.w3.org/2000/svg">
<path d="M11.175 10.0005L14.7583 6.42548C14.9153 6.26856 15.0034 6.05573 15.0034 5.83381C15.0034 5.6119 14.9153 5.39907 14.7583 5.24215C14.6014 5.08523 14.3886 4.99707 14.1667 4.99707C13.9448 4.99707 13.7319 5.08523 13.575 5.24215L10 8.82548L6.42501 5.24215C6.26809 5.08523 6.05526 4.99707 5.83334 4.99707C5.61143 4.99707 5.3986 5.08523 5.24168 5.24215C5.08476 5.39907 4.9966 5.6119 4.9966 5.83381C4.9966 6.05573 5.08476 6.26856 5.24168 6.42548L8.82501 10.0005L5.24168 13.5755C5.16357 13.653 5.10157 13.7451 5.05927 13.8467C5.01696 13.9482 4.99518 14.0571 4.99518 14.1671C4.99518 14.2772 5.01696 14.3861 5.05927 14.4876C5.10157 14.5892 5.16357 14.6813 5.24168 14.7588C5.31915 14.8369 5.41131 14.8989 5.51286 14.9412C5.61441 14.9835 5.72333 15.0053 5.83334 15.0053C5.94335 15.0053 6.05227 14.9835 6.15382 14.9412C6.25537 14.8989 6.34754 14.8369 6.42501 14.7588L10 11.1755L13.575 14.7588C13.6525 14.8369 13.7446 14.8989 13.8462 14.9412C13.9477 14.9835 14.0567 15.0053 14.1667 15.0053C14.2767 15.0053 14.3856 14.9835 14.4872 14.9412C14.5887 14.8989 14.6809 14.8369 14.7583 14.7588C14.8365 14.6813 14.8984 14.5892 14.9408 14.4876C14.9831 14.3861 15.0048 14.2772 15.0048 14.1671C15.0048 14.0571 14.9831 13.9482 14.9408 13.8467C14.8984 13.7451 14.8365 13.653 14.7583 13.5755L11.175 10.0005Z" fill="#181A18"/>
</svg>
