<svg width="20" height="20" viewBox="0 0 20 20" fill="none" xmlns="http://www.w3.org/2000/svg">
<path d="M8.21662 15C8.10235 14.9996 7.98939 14.9758 7.88473 14.9299C7.78008 14.884 7.68598 14.8171 7.60828 14.7333L3.55828 10.425C3.40689 10.2636 3.32579 10.0488 3.33282 9.82764C3.33985 9.6065 3.43444 9.39721 3.59578 9.24582C3.75712 9.09443 3.972 9.01332 4.19313 9.02036C4.41427 9.02739 4.62356 9.12198 4.77495 9.28332L8.20828 12.9417L15.2166 5.27499C15.2877 5.18642 15.3762 5.11333 15.4766 5.06021C15.577 5.00708 15.6872 4.97504 15.8004 4.96605C15.9137 4.95707 16.0275 4.97132 16.1351 5.00795C16.2426 5.04457 16.3415 5.10279 16.4257 5.17902C16.5099 5.25526 16.5776 5.34791 16.6247 5.45127C16.6718 5.55464 16.6973 5.66654 16.6995 5.7801C16.7018 5.89367 16.6808 6.0065 16.6379 6.11166C16.595 6.21683 16.531 6.31211 16.45 6.39165L8.83328 14.725C8.75632 14.8103 8.66255 14.8787 8.55786 14.9261C8.45317 14.9734 8.33983 14.9986 8.22495 15H8.21662Z" fill="white"/>
</svg>
