<svg width="24" height="24" viewBox="0 0 24 24" fill="none" xmlns="http://www.w3.org/2000/svg">
<path d="M18.9999 11H12.9999V5C12.9999 4.73478 12.8945 4.48043 12.707 4.29289C12.5194 4.10536 12.2651 4 11.9999 4C11.7347 4 11.4803 4.10536 11.2928 4.29289C11.1052 4.48043 10.9999 4.73478 10.9999 5V11H4.99988C4.73466 11 4.48031 11.1054 4.29277 11.2929C4.10523 11.4804 3.99988 11.7348 3.99988 12C3.99988 12.2652 4.10523 12.5196 4.29277 12.7071C4.48031 12.8946 4.73466 13 4.99988 13H10.9999V19C10.9999 19.2652 11.1052 19.5196 11.2928 19.7071C11.4803 19.8946 11.7347 20 11.9999 20C12.2651 20 12.5194 19.8946 12.707 19.7071C12.8945 19.5196 12.9999 19.2652 12.9999 19V13H18.9999C19.2651 13 19.5194 12.8946 19.707 12.7071C19.8945 12.5196 19.9999 12.2652 19.9999 12C19.9999 11.7348 19.8945 11.4804 19.707 11.2929C19.5194 11.1054 19.2651 11 18.9999 11Z" fill="#181A18"/>
</svg>
