<svg width="20" height="20" viewBox="0 0 20 20" fill="none" xmlns="http://www.w3.org/2000/svg">
<path d="M7.49984 9.16667C8.15911 9.16667 8.80357 8.97117 9.35174 8.6049C9.8999 8.23863 10.3271 7.71803 10.5794 7.10895C10.8317 6.49986 10.8977 5.82964 10.7691 5.18303C10.6405 4.53643 10.323 3.94249 9.85686 3.47631C9.39069 3.01014 8.79674 2.69267 8.15014 2.56405C7.50354 2.43543 6.83331 2.50144 6.22423 2.75374C5.61514 3.00603 5.09454 3.43327 4.72827 3.98143C4.362 4.5296 4.1665 5.17406 4.1665 5.83334C4.1665 6.71739 4.51769 7.56524 5.14281 8.19036C5.76794 8.81548 6.61578 9.16667 7.49984 9.16667ZM14.1665 10.8333C14.661 10.8333 15.1443 10.6867 15.5554 10.412C15.9666 10.1373 16.287 9.74686 16.4762 9.29004C16.6654 8.83323 16.7149 8.33056 16.6185 7.84561C16.522 7.36066 16.2839 6.9152 15.9343 6.56557C15.5846 6.21594 15.1392 5.97784 14.6542 5.88137C14.1693 5.78491 13.6666 5.83442 13.2098 6.02364C12.753 6.21286 12.3625 6.53329 12.0878 6.94441C11.8131 7.35553 11.6665 7.83888 11.6665 8.33334C11.6665 8.99638 11.9299 9.63226 12.3987 10.1011C12.8676 10.5699 13.5035 10.8333 14.1665 10.8333ZM17.4998 16.6667C17.7209 16.6667 17.9328 16.5789 18.0891 16.4226C18.2454 16.2663 18.3332 16.0543 18.3332 15.8333C18.3325 15.0545 18.1136 14.2914 17.7012 13.6307C17.2888 12.97 16.6995 12.4381 16.0001 12.0954C15.3008 11.7527 14.5193 11.6128 13.7445 11.6917C12.9697 11.7705 12.2325 12.065 11.6165 12.5417C10.8003 11.7286 9.76155 11.1755 8.63136 10.952C7.50116 10.7285 6.3301 10.8447 5.26586 11.2859C4.20162 11.7272 3.29185 12.4736 2.65129 13.4312C2.01073 14.3888 1.66806 15.5146 1.6665 16.6667C1.6665 16.8877 1.7543 17.0996 1.91058 17.2559C2.06686 17.4122 2.27882 17.5 2.49984 17.5H12.4998C12.7209 17.5 12.9328 17.4122 13.0891 17.2559C13.2454 17.0996 13.3332 16.8877 13.3332 16.6667" fill="#181A18"/>
</svg>
