<svg width="20" height="20" viewBox="0 0 20 20" fill="none" xmlns="http://www.w3.org/2000/svg">
<path d="M9.99994 18.2085C9.70874 18.213 9.42141 18.1412 9.16661 18.0001L8.91661 17.8585C6.96934 16.7568 5.34933 15.158 4.22201 13.2255C3.09468 11.2929 2.50044 9.0958 2.49994 6.85848V6.74181C2.4973 6.44672 2.57306 6.15622 2.71947 5.9C2.86589 5.64377 3.0777 5.43102 3.33328 5.28348L9.16661 2.00015C9.41998 1.85387 9.70738 1.77686 9.99994 1.77686C10.2925 1.77686 10.5799 1.85387 10.8333 2.00015L16.6666 5.28348C16.9222 5.43102 17.134 5.64377 17.2804 5.9C17.4268 6.15622 17.5026 6.44672 17.4999 6.74181V6.85848C17.4978 9.09745 16.901 11.2957 15.7707 13.2284C14.6403 15.1611 13.017 16.7589 11.0666 17.8585L10.8166 18.0001C10.5667 18.1384 10.2855 18.2101 9.99994 18.2085Z" fill="black"/>
</svg>
