<svg width="20" height="20" viewBox="0 0 20 20" fill="none" xmlns="http://www.w3.org/2000/svg">
<path d="M10.0003 16.6667C10.4606 16.6667 10.8337 16.2936 10.8337 15.8333C10.8337 15.3731 10.4606 15 10.0003 15C9.54009 15 9.16699 15.3731 9.16699 15.8333C9.16699 16.2936 9.54009 16.6667 10.0003 16.6667Z" fill="#181A18"/>
<path d="M10.0001 11.6667C8.92156 11.6667 7.88502 12.0849 7.10846 12.8334C6.94933 12.987 6.85773 13.1975 6.85383 13.4187C6.84992 13.6398 6.93402 13.8534 7.08762 14.0126C7.24123 14.1717 7.45175 14.2633 7.67289 14.2672C7.89403 14.2711 8.10766 14.187 8.26679 14.0334C8.74004 13.6 9.35844 13.3597 10.0001 13.3597C10.6418 13.3597 11.2602 13.6 11.7335 14.0334C11.8926 14.187 12.1062 14.2711 12.3274 14.2672C12.5485 14.2633 12.759 14.1717 12.9126 14.0126C13.0662 13.8534 13.1503 13.6398 13.1464 13.4187C13.1425 13.1975 13.0509 12.987 12.8918 12.8334C12.1152 12.0849 11.0787 11.6667 10.0001 11.6667ZM10.0001 7.50005C8.99363 7.50072 7.99757 7.70396 7.07127 8.09767C6.14498 8.49138 5.30741 9.0675 4.60846 9.79172C4.5324 9.87216 4.47293 9.96678 4.43344 10.0702C4.39396 10.1736 4.37523 10.2838 4.37832 10.3945C4.38142 10.5051 4.40628 10.6141 4.45148 10.7151C4.49669 10.8162 4.56135 10.9073 4.64179 10.9834C4.80423 11.137 5.02105 11.2198 5.24453 11.2135C5.35518 11.2104 5.46415 11.1856 5.56519 11.1404C5.66624 11.0952 5.7574 11.0305 5.83346 10.9501C6.37761 10.3855 7.03 9.93643 7.75164 9.62971C8.47327 9.32299 9.24934 9.1649 10.0335 9.1649C10.8176 9.1649 11.5936 9.32299 12.3153 9.62971C13.0369 9.93643 13.6893 10.3855 14.2335 10.9501C14.3106 11.0288 14.4027 11.0914 14.5042 11.1343C14.6058 11.1773 14.7149 11.1996 14.8251 11.2001C14.988 11.1994 15.1471 11.1511 15.2828 11.0611C15.4185 10.971 15.5248 10.8432 15.5886 10.6933C15.6524 10.5435 15.671 10.3783 15.6419 10.218C15.6129 10.0578 15.5375 9.90959 15.4251 9.79172C14.7223 9.06345 13.8793 8.48498 12.947 8.09114C12.0146 7.69729 11.0122 7.49623 10.0001 7.50005Z" fill="#181A18"/>
<path d="M18.1002 6.60855C15.9256 4.5107 13.0218 3.33838 10.0002 3.33838C6.97863 3.33838 4.07488 4.5107 1.90024 6.60855C1.7596 6.76493 1.6833 6.9687 1.68663 7.17899C1.68996 7.38928 1.77268 7.59053 1.9182 7.74238C2.06372 7.89422 2.26127 7.98543 2.47123 7.9977C2.68118 8.00998 2.88802 7.94241 3.05024 7.80855C4.9149 6.00615 7.40686 4.99865 10.0002 4.99865C12.5936 4.99865 15.0856 6.00615 16.9502 7.80855C17.1047 7.95745 17.3107 8.04103 17.5252 8.04188C17.6375 8.04146 17.7485 8.01835 17.8516 7.97396C17.9547 7.92957 18.0478 7.8648 18.1252 7.78355C18.2772 7.62414 18.3598 7.41106 18.3551 7.19089C18.3505 6.97072 18.2588 6.76136 18.1002 6.60855Z" fill="#181A18"/>
</svg>
