<svg width="20" height="20" viewBox="0 0 20 20" fill="none" xmlns="http://www.w3.org/2000/svg">
<g clip-path="url(#clip0_0_3580)">
<path d="M18.2775 7.72552L17.8092 6.26198L16.9788 3.66667C16.2658 1.43906 14.5654 0 12.6458 0H7.35417C5.435 0 3.73417 1.43906 3.02125 3.66667L2.19083 6.26198L1.7225 7.72552C0.7175 8.20312 0 9.40938 0 10.8333V13.3333C0 14.1729 0.256667 14.9307 0.666667 15.5172V18.3333C0.666667 19.2536 1.26375 20 2 20H3.33333C4.06958 20 4.66667 19.2536 4.66667 18.3333V16.6667H15.3333V18.3333C15.3333 19.2536 15.9304 20 16.6667 20H18C18.7362 20 19.3333 19.2536 19.3333 18.3333V15.5172C19.7433 14.9312 20 14.1734 20 13.3333V10.8333C20 9.40938 19.2825 8.20312 18.2775 7.72552ZM5.49708 4.90469C5.80083 3.95573 6.53625 3.33333 7.35417 3.33333H12.6458C13.4638 3.33333 14.1992 3.95573 14.5029 4.90469L15.3333 7.5H4.66667L5.49708 4.90469ZM3.33333 13.3229C2.53333 13.3229 2 12.6583 2 11.6615C2 10.6646 2.53333 10 3.33333 10C4.13333 10 5.33333 11.4953 5.33333 12.4922C5.33333 13.4891 4.13333 13.3229 3.33333 13.3229ZM16.6667 13.3229C15.8667 13.3229 14.6667 13.4891 14.6667 12.4922C14.6667 11.4953 15.8667 10 16.6667 10C17.4667 10 18 10.6646 18 11.6615C18 12.6583 17.4667 13.3229 16.6667 13.3229Z" fill="#181A18"/>
</g>
<defs>
<clipPath id="clip0_0_3580">
<rect width="20" height="20" fill="white"/>
</clipPath>
</defs>
</svg>
