<svg width="20" height="20" viewBox="0 0 20 20" fill="none" xmlns="http://www.w3.org/2000/svg">
<path d="M16.042 9.16683C16.6256 9.1668 17.1872 9.38941 17.6122 9.78924C18.0373 10.1891 18.2938 10.736 18.3295 11.3185L18.3337 11.4585V16.8752C18.3336 17.0335 18.2735 17.1859 18.1653 17.3017C18.0572 17.4174 17.9092 17.4877 17.7513 17.4985C17.5933 17.5093 17.4371 17.4597 17.3142 17.3598C17.1914 17.2599 17.1111 17.117 17.0895 16.9602L17.0837 16.8752V15.0002H2.91699V16.8752C2.91699 17.0262 2.86229 17.1721 2.76302 17.2859C2.66375 17.3998 2.52662 17.4738 2.37699 17.4943L2.29199 17.5002C2.14096 17.5002 1.99504 17.4455 1.88122 17.3462C1.76739 17.2469 1.69337 17.1098 1.67283 16.9602L1.66699 16.8752V11.4585C1.66696 10.8749 1.88957 10.3133 2.2894 9.88825C2.68924 9.46317 3.23618 9.20665 3.81866 9.171L3.95866 9.16683H16.042ZM5.62533 3.3335H14.3753C14.9589 3.33347 15.5205 3.55607 15.9456 3.95591C16.3707 4.35574 16.6272 4.90268 16.6628 5.48516L16.667 5.62516V8.3335H14.167L14.1612 8.236C14.1392 8.04998 14.0553 7.87678 13.9228 7.74434C13.7904 7.6119 13.6172 7.52793 13.4312 7.506L13.3337 7.50016H11.667C11.4629 7.50019 11.2659 7.57513 11.1133 7.71076C10.9608 7.84639 10.8634 8.03329 10.8395 8.236L10.8337 8.3335H9.16699L9.16116 8.236C9.13922 8.04998 9.05526 7.87678 8.92282 7.74434C8.79037 7.6119 8.61717 7.52793 8.43116 7.506L8.33366 7.50016H6.66699C6.46288 7.50019 6.26588 7.57513 6.11335 7.71076C5.96082 7.84639 5.86337 8.03329 5.83949 8.236L5.83366 8.3335H3.33366V5.62516C3.33363 5.04159 3.55624 4.47999 3.95607 4.05491C4.3559 3.62984 4.90284 3.37331 5.48533 3.33766L5.62533 3.3335Z" fill="#181A18"/>
</svg>
