<svg width="20" height="20" viewBox="0 0 20 20" fill="none" xmlns="http://www.w3.org/2000/svg">
<path d="M15 1.66666H5.00004C4.55801 1.66666 4.13409 1.84225 3.82153 2.15481C3.50897 2.46737 3.33337 2.8913 3.33337 3.33332V16.6667C3.33337 17.1087 3.50897 17.5326 3.82153 17.8452C4.13409 18.1577 4.55801 18.3333 5.00004 18.3333H15C15.4421 18.3333 15.866 18.1577 16.1786 17.8452C16.4911 17.5326 16.6667 17.1087 16.6667 16.6667V3.33332C16.6667 2.8913 16.4911 2.46737 16.1786 2.15481C15.866 1.84225 15.4421 1.66666 15 1.66666ZM8.33337 3.33332C8.55439 3.33332 8.76635 3.42112 8.92263 3.5774C9.07891 3.73368 9.16671 3.94564 9.16671 4.16666C9.16671 4.38767 9.07891 4.59963 8.92263 4.75591C8.76635 4.91219 8.55439 4.99999 8.33337 4.99999C8.11236 4.99999 7.9004 4.91219 7.74412 4.75591C7.58784 4.59963 7.50004 4.38767 7.50004 4.16666C7.50004 3.94564 7.58784 3.73368 7.74412 3.5774C7.9004 3.42112 8.11236 3.33332 8.33337 3.33332ZM5.83337 3.33332C6.05439 3.33332 6.26635 3.42112 6.42263 3.5774C6.57891 3.73368 6.66671 3.94564 6.66671 4.16666C6.66671 4.38767 6.57891 4.59963 6.42263 4.75591C6.26635 4.91219 6.05439 4.99999 5.83337 4.99999C5.61236 4.99999 5.4004 4.91219 5.24412 4.75591C5.08784 4.59963 5.00004 4.38767 5.00004 4.16666C5.00004 3.94564 5.08784 3.73368 5.24412 3.5774C5.4004 3.42112 5.61236 3.33332 5.83337 3.33332ZM15 16.6667H5.00004V6.66666H15V16.6667ZM12.225 12.775C12.2417 13.3583 12.0084 13.925 11.5917 14.3417C11.3827 14.5508 11.1346 14.7167 10.8615 14.8299C10.5884 14.9431 10.2957 15.0013 10 15.0013C9.7044 15.0013 9.41167 14.9431 9.13856 14.8299C8.86545 14.7167 8.61733 14.5508 8.40837 14.3417C7.99171 13.925 7.75837 13.3583 7.77504 12.775C7.83337 12.1833 8.02504 11.6167 8.33337 11.1083C8.64171 10.4167 9.00837 9.77499 9.44171 9.16666L10 8.33332C11.4917 10.4917 12.225 11.9667 12.225 12.775Z" fill="black"/>
</svg>
