<svg width="20" height="20" viewBox="0 0 20 20" fill="none" xmlns="http://www.w3.org/2000/svg">
<path d="M15.8333 2.5H4.16667C3.25 2.5 2.5 3.25 2.5 4.16667V15.8333C2.5 16.75 3.25 17.5 4.16667 17.5H15.8333C16.75 17.5 17.5 16.75 17.5 15.8333V4.16667C17.5 3.25 16.75 2.5 15.8333 2.5ZM7.08333 5C7.3596 5 7.62455 5.10975 7.8199 5.3051C8.01525 5.50045 8.125 5.7654 8.125 6.04167C8.125 6.31793 8.01525 6.58289 7.8199 6.77824C7.62455 6.97359 7.3596 7.08333 7.08333 7.08333C6.80707 7.08333 6.54211 6.97359 6.34676 6.77824C6.15141 6.58289 6.04167 6.31793 6.04167 6.04167C6.04167 5.7654 6.15141 5.50045 6.34676 5.3051C6.54211 5.10975 6.80707 5 7.08333 5ZM9.16667 11.6667H8.33333V15H5.83333V11.6667H5V9.58333C5 8.66667 5.75 7.91667 6.66667 7.91667H7.5C8.41667 7.91667 9.16667 8.66667 9.16667 9.58333V11.6667ZM12.9167 14.1667L10.8333 10.8333H15L12.9167 14.1667ZM10.8333 9.16667L12.9167 5.83333L15 9.16667H10.8333Z" fill="black"/>
</svg>
