<svg width="20" height="20" viewBox="0 0 20 20" fill="none" xmlns="http://www.w3.org/2000/svg">
<path d="M12.3584 9.30832C12.9827 9.93442 13.3332 10.7825 13.3332 11.6667C13.3332 12.5508 12.9827 13.3989 12.3584 14.025C11.7323 14.6493 10.8842 14.9999 10 14.9999C9.11588 14.9999 8.2678 14.6493 7.64171 14.025L12.3584 9.30832ZM5.00004 1.66666H15C15.4421 1.66666 15.866 1.84225 16.1786 2.15481C16.4911 2.46737 16.6667 2.8913 16.6667 3.33332V16.6667C16.6667 17.1087 16.4911 17.5326 16.1786 17.8452C15.866 18.1577 15.4421 18.3333 15 18.3333H5.00004C4.55801 18.3333 4.13409 18.1577 3.82153 17.8452C3.50897 17.5326 3.33337 17.1087 3.33337 16.6667V3.33332C3.33337 2.8913 3.50897 2.46737 3.82153 2.15481C4.13409 1.84225 4.55801 1.66666 5.00004 1.66666ZM5.83337 3.33332C5.61236 3.33332 5.4004 3.42112 5.24412 3.5774C5.08784 3.73368 5.00004 3.94564 5.00004 4.16666C5.00004 4.38767 5.08784 4.59963 5.24412 4.75591C5.4004 4.91219 5.61236 4.99999 5.83337 4.99999C6.05439 4.99999 6.26635 4.91219 6.42263 4.75591C6.57891 4.59963 6.66671 4.38767 6.66671 4.16666C6.66671 3.94564 6.57891 3.73368 6.42263 3.5774C6.26635 3.42112 6.05439 3.33332 5.83337 3.33332ZM8.33337 3.33332C8.11236 3.33332 7.9004 3.42112 7.74412 3.5774C7.58784 3.73368 7.50004 3.94564 7.50004 4.16666C7.50004 4.38767 7.58784 4.59963 7.74412 4.75591C7.9004 4.91219 8.11236 4.99999 8.33337 4.99999C8.55439 4.99999 8.76635 4.91219 8.92263 4.75591C9.07891 4.59963 9.16671 4.38767 9.16671 4.16666C9.16671 3.94564 9.07891 3.73368 8.92263 3.5774C8.76635 3.42112 8.55439 3.33332 8.33337 3.33332ZM10 6.66666C8.67396 6.66666 7.40219 7.19344 6.46451 8.13112C5.52682 9.06881 5.00004 10.3406 5.00004 11.6667C5.00004 12.9927 5.52682 14.2645 6.46451 15.2022C7.40219 16.1399 8.67396 16.6667 10 16.6667C11.3261 16.6667 12.5979 16.1399 13.5356 15.2022C14.4733 14.2645 15 12.9927 15 11.6667C15 10.3406 14.4733 9.06881 13.5356 8.13112C12.5979 7.19344 11.3261 6.66666 10 6.66666Z" fill="black"/>
</svg>
